<?xml version="1.0" encoding="UTF-8" standalone="no"?>
<!-- Created with Inkscape (http://www.inkscape.org/) -->

<svg
   width="210mm"
   height="297mm"
   viewBox="0 0 210 297"
   version="1.1"
   id="svg1"
   xml:space="preserve"
   inkscape:version="1.4 (e7c3feb1, 2024-10-09)"
   sodipodi:docname="davis-logo.svg"
   xmlns:inkscape="http://www.inkscape.org/namespaces/inkscape"
   xmlns:sodipodi="http://sodipodi.sourceforge.net/DTD/sodipodi-0.dtd"
   xmlns="http://www.w3.org/2000/svg"
   xmlns:svg="http://www.w3.org/2000/svg"><sodipodi:namedview
     id="namedview1"
     pagecolor="#ffffff"
     bordercolor="#000000"
     borderopacity="0.25"
     inkscape:showpageshadow="2"
     inkscape:pageopacity="0.0"
     inkscape:pagecheckerboard="0"
     inkscape:deskcolor="#d1d1d1"
     inkscape:document-units="mm"
     inkscape:zoom="1.6352328"
     inkscape:cx="469.6579"
     inkscape:cy="241.55582"
     inkscape:window-width="1440"
     inkscape:window-height="847"
     inkscape:window-x="0"
     inkscape:window-y="25"
     inkscape:window-maximized="0"
     inkscape:current-layer="g14" /><defs
     id="defs1" /><g
     inkscape:label="Layer 1"
     inkscape:groupmode="layer"
     id="layer1"
     style="display:none"
     sodipodi:insensitive="true"><path
       id="path1-3"
       style="display:none;fill:#fe218b;fill-opacity:1;stroke-width:0.264583"
       d="m 110.79293,33.625808 a 30.508982,30.508982 0 0 0 -30.509248,30.509253 30.508982,30.508982 0 0 0 30.509248,30.50873 30.508982,30.508982 0 0 0 30.50873,-30.50873 30.508982,30.508982 0 0 0 -30.50873,-30.509253 z m -3.17139,10.44743 c 0.89363,0 1.54771,0.67557 1.54771,1.52549 v 37.072153 c 0,0.85002 -0.65408,1.52549 -1.54771,1.52549 -0.87168,0 -1.52548,-0.67547 -1.52548,-1.52549 V 45.598728 c 0,-0.84992 0.6538,-1.52549 1.52548,-1.52549 z m 12.6845,4.3589 c 0.87177,0 1.52549,0.69728 1.52549,1.547203 v 28.31093 c 0,0.84992 -0.65372,1.54771 -1.52549,1.54771 -0.87177,0 -1.54719,-0.69779 -1.54719,-1.54771 v -28.31093 c 0,-0.849923 0.67542,-1.547203 1.54719,-1.547203 z m -19.00452,3.530543 c 0.87177,0 1.52548,0.67548 1.52548,1.52549 v 21.29327 c 0,0.85001 -0.65371,1.52549 -1.52548,1.52549 -0.89363,0 -1.547708,-0.67548 -1.547708,-1.52549 v -21.29327 c 0,-0.85001 0.654078,-1.52549 1.547708,-1.52549 z m 12.66227,2.35386 c 0.87168,0 1.54719,0.67556 1.54719,1.52549 v 16.58555 c 0,0.84992 -0.67551,1.52549 -1.54719,1.52549 -0.87177,0 -1.52549,-0.67557 -1.52549,-1.52549 v -16.58555 c 0,-0.84993 0.65372,-1.52549 1.52549,-1.52549 z m 12.6845,3.90105 c 0.87177,0 1.52549,0.6977 1.52549,1.54771 v 8.73952 c 0,0.85001 -0.65372,1.54719 -1.52549,1.54719 -0.89363,0 -1.54771,-0.69718 -1.54771,-1.54719 v -8.73952 c 0,-0.85001 0.65408,-1.54771 1.54771,-1.54771 z m -31.689018,1.72186 c 0.871774,0 1.525488,0.67557 1.525488,1.52549 v 5.33973 c 0,0.84993 -0.653714,1.52548 -1.525488,1.52548 -0.893626,0 -1.547709,-0.67555 -1.547709,-1.52548 v -5.33973 c 0,-0.84992 0.654083,-1.52549 1.547709,-1.52549 z" /><path
       id="path1-9-6"
       style="display:none;fill:#21b0fe;fill-opacity:1;stroke-width:0.264583"
       d="m 141.36882,33.625808 a 30.508982,30.508982 0 0 0 -30.50926,30.509253 30.508982,30.508982 0 0 0 30.50926,30.50873 30.508982,30.508982 0 0 0 30.50873,-30.50873 30.508982,30.508982 0 0 0 -30.50873,-30.509253 z m -10.21076,13.80329 h 20.45406 c 1.67995,0 3.11967,0.61251 4.31963,1.83762 1.19997,1.225103 1.79989,2.706243 1.79989,4.443663 v 20.88244 c 0,1.71515 -0.59992,3.18548 -1.79989,4.41058 -1.19996,1.22511 -2.63968,1.83762 -4.31963,1.83762 h -20.45406 c -1.70176,-0.0223 -3.15274,-0.63478 -4.3527,-1.83762 -1.19997,-1.20282 -1.79989,-2.67316 -1.79989,-4.41058 v -20.88244 c 0,-1.73742 0.59992,-3.21856 1.79989,-4.443663 1.19996,-1.22511 2.65094,-1.83762 4.3527,-1.83762 z m 0,4.176493 c -0.58907,0.0223 -1.08006,0.23364 -1.47278,0.63459 -0.39272,0.40094 -0.58911,0.89106 -0.58911,1.4702 v 20.88244 c -0.0218,0.57914 0.17458,1.06926 0.58911,1.4702 0.41454,0.40094 0.90553,0.60151 1.47278,0.60151 h 20.45406 c 0.56725,0 1.04699,-0.20057 1.43971,-0.60151 0.39271,-0.40094 0.58911,-0.89106 0.58911,-1.4702 v -20.88244 c 0.0218,-0.55686 -0.17458,-1.04698 -0.58911,-1.4702 -0.41454,-0.42322 -0.89428,-0.63459 -1.43971,-0.63459 z m 3.04374,2.10479 c 0.89452,-0.0223 1.62537,0.27857 2.19263,0.90227 0.56728,0.62368 0.86187,1.36991 0.88367,2.23862 0.0218,0.86871 -0.27278,1.60362 -0.88367,2.20503 -0.61089,0.60142 -1.34174,0.90227 -2.19263,0.90227 -0.85088,0 -1.571,-0.30085 -2.16007,-0.90227 -0.58907,-0.60141 -0.88367,-1.33632 -0.88367,-2.20503 0.0436,-0.91326 0.33824,-1.65948 0.88367,-2.23862 0.54544,-0.57916 1.26555,-0.88001 2.16007,-0.90227 z m 12.17395,8.41964 c 0.39272,0.0223 0.77477,0.23416 1.14566,0.6351 0.39272,0.53459 0.82898,1.2695 1.30897,2.20503 0.47998,0.93554 1.02519,2.18318 1.63606,3.74241 0.6109,1.55922 0.99294,2.4947 1.14567,2.80655 v 0.96893 c -0.0218,0.60142 -0.22895,1.10233 -0.62167,1.50327 -0.39272,0.40094 -0.87297,0.60151 -1.44022,0.60151 h -16.36334 c -0.56726,0.0223 -1.04699,-0.17829 -1.43971,-0.60151 -0.39272,-0.42322 -0.58911,-0.92413 -0.58911,-1.50327 v -0.66818 c 0.24,-0.57914 0.60005,-1.47038 1.08004,-2.67322 0.47999,-1.20282 0.79605,-1.98247 0.94878,-2.33887 0.28363,-0.60142 0.68767,-0.72382 1.21129,-0.36742 0.32727,0.22274 0.87247,0.85737 1.63608,1.90427 0.21817,0.28958 0.38184,0.50146 0.49093,0.63511 0.7418,1.00236 1.30899,1.50326 1.7017,1.50326 0.41453,-0.0223 0.78533,-0.17809 1.11259,-0.46767 0.32726,-0.28956 0.69858,-0.7015 1.11311,-1.2361 0.41454,-0.53459 0.80681,-1.09156 1.17771,-1.6707 0.3709,-0.57914 0.76369,-1.16953 1.17822,-1.77095 0.41454,-0.60141 0.81807,-1.14706 1.21078,-1.63711 0.39272,-0.49004 0.78551,-0.87987 1.17822,-1.16943 0.39272,-0.28957 0.78551,-0.42328 1.17824,-0.40101 z" /></g><g
     inkscape:groupmode="layer"
     id="layer3"
     inkscape:label="Layer 3"
     style="display:inline"><rect
       style="fill:#ffffff;fill-opacity:1;stroke:#ffffff;stroke-width:0.264999;stroke-dasharray:none;stroke-opacity:1"
       id="rect29"
       width="69.251099"
       height="69.251099"
       x="91.454865"
       y="26.373667"
       inkscape:export-filename="davis-logo-v3.png"
       inkscape:export-xdpi="96"
       inkscape:export-ydpi="96" /></g><g
     inkscape:groupmode="layer"
     id="layer2"
     inkscape:label="Layer 2"
     style="display:inline" /><g
     inkscape:groupmode="layer"
     id="g12"
     inkscape:label="Layer 2"
     style="display:inline" /><g
     inkscape:groupmode="layer"
     id="g14"
     inkscape:label="Layer 2"
     style="display:inline"><g
       id="g29"
       transform="translate(0,-0.47215642)"
       inkscape:export-filename="logo-rect.png"
       inkscape:export-xdpi="96"
       inkscape:export-ydpi="96"><path
         style="display:inline;fill:#003049;fill-opacity:1;stroke-width:0.265;stroke-dasharray:none"
         d="m 138.60084,48.942164 a 30.508982,30.508982 0 0 1 2.70061,12.529467 30.508982,30.508982 0 0 1 -0.27698,3.871082 c 0.20778,-0.293267 0.4099,-0.591972 0.60564,-0.89762 0.3709,-0.57914 0.7637,-1.169531 1.17823,-1.770951 0.41454,-0.60141 0.81807,-1.147059 1.21078,-1.637109 0.39272,-0.49004 0.78551,-0.879878 1.17822,-1.169438 0.39272,-0.28957 0.78549,-0.423279 1.17822,-0.401009 0.39272,0.0223 0.77478,0.234163 1.14567,0.635103 0.39272,0.53459 0.82897,1.269503 1.30896,2.205033 0.47998,0.93554 1.02521,2.183178 1.63608,3.742408 0.6109,1.55922 0.99293,2.494697 1.14566,2.806547 v 0.968933 c -0.0218,0.60142 -0.22894,1.102327 -0.62166,1.503267 -0.39272,0.40094 -0.87298,0.601514 -1.44023,0.601514 h -10.1787 a 30.508982,30.508982 0 0 1 -0.77308,2.071708 h 13.01367 c 0.56725,0 1.04699,-0.200574 1.43971,-0.601514 0.39271,-0.40094 0.58911,-0.891054 0.58911,-1.470194 V 51.046945 c 0.0218,-0.55686 -0.17458,-1.046975 -0.58911,-1.470195 -0.41454,-0.42322 -0.89428,-0.634586 -1.43971,-0.634586 z"
         id="path16" /><path
         style="display:inline;fill:#003049;fill-opacity:1;stroke-width:0.265;stroke-dasharray:none"
         d="m 141.36863,30.962382 a 30.508982,30.508982 0 0 0 -15.22646,4.150652 30.508982,30.508982 0 0 1 10.17251,9.65264 h 15.29725 c 1.67995,0 3.11968,0.612504 4.31964,1.837614 1.19997,1.225103 1.79989,2.706237 1.79989,4.443657 v 20.882446 c 0,1.71515 -0.59992,3.185483 -1.79989,4.410583 -1.19996,1.22511 -2.63969,1.837614 -4.31964,1.837614 h -15.31224 a 30.508982,30.508982 0 0 1 -10.2185,9.618535 30.508982,30.508982 0 0 0 15.28744,4.18424 30.508982,30.508982 0 0 0 30.50873,-30.508732 30.508982,30.508982 0 0 0 -30.50873,-30.509249 z"
         id="path10" /><path
         id="path11"
         style="display:inline;fill:#d62828;fill-opacity:1;stroke-width:0.264583"
         d="m 110.79272,30.962382 a 30.508982,30.508982 0 0 0 -30.509248,30.509249 30.508982,30.508982 0 0 0 30.509248,30.508732 30.508982,30.508982 0 0 0 15.28847,-4.18424 30.508982,30.508982 0 0 1 -15.22181,-26.324492 30.508982,30.508982 0 0 1 15.28279,-26.358597 30.508982,30.508982 0 0 0 -15.34945,-4.150652 z m -3.17138,10.447425 c 0.89363,0 1.54771,0.675568 1.54771,1.525488 v 37.072156 c 0,0.85002 -0.65408,1.525488 -1.54771,1.525488 -0.87168,0 -1.52549,-0.675468 -1.52549,-1.525488 V 42.935295 c 0,-0.84992 0.65381,-1.525488 1.52549,-1.525488 z m -6.32003,7.889441 c 0.87177,0 1.52549,0.675478 1.52549,1.525488 V 72.11801 c 0,0.85001 -0.65372,1.525488 -1.52549,1.525488 -0.89363,0 -1.547709,-0.675478 -1.547709,-1.525488 V 50.824736 c 0,-0.85001 0.654079,-1.525488 1.547709,-1.525488 z m -6.342248,7.976774 c 0.871774,0 1.525488,0.675568 1.525488,1.525488 v 5.339726 c 0,0.84993 -0.653714,1.525488 -1.525488,1.525488 -0.893626,0 -1.547709,-0.675558 -1.547709,-1.525488 V 58.80151 c 0,-0.84992 0.654083,-1.525488 1.547709,-1.525488 z" /><path
         id="path14"
         style="display:inline;fill:#fcbf49;fill-opacity:1;stroke-width:0.264583"
         d="m 126.14217,35.113034 a 30.508982,30.508982 0 0 0 -15.28279,26.358597 30.508982,30.508982 0 0 0 15.22181,26.324492 30.508982,30.508982 0 0 0 10.2185,-9.618535 h -5.1418 c -1.70176,-0.0223 -3.15275,-0.634774 -4.35271,-1.837614 -1.19997,-1.20282 -1.79989,-2.673163 -1.79989,-4.410583 V 51.046945 c 0,-1.73742 0.59992,-3.218554 1.79989,-4.443657 1.19996,-1.22511 2.65095,-1.837614 4.35271,-1.837614 h 5.15679 a 30.508982,30.508982 0 0 0 -10.17251,-9.65264 z m -5.83634,10.65568 c 0.87177,0 1.52549,0.697269 1.52549,1.547192 V 75.62684 c 0,0.84992 -0.65372,1.547709 -1.52549,1.547709 -0.87177,0 -1.54719,-0.697789 -1.54719,-1.547709 V 47.315906 c 0,-0.849923 0.67542,-1.547192 1.54719,-1.547192 z m 10.85206,3.17345 c -0.58907,0.0223 -1.08006,0.233636 -1.47278,0.634586 -0.39272,0.40094 -0.58911,0.891055 -0.58911,1.470195 v 20.882446 c -0.0218,0.57914 0.17458,1.069254 0.58911,1.470194 0.41454,0.40094 0.90553,0.601514 1.47278,0.601514 h 7.44037 a 30.508982,30.508982 0 0 0 0.77308,-2.071708 h -6.18464 c -0.56726,0.0223 -1.04698,-0.178294 -1.4397,-0.601514 -0.39272,-0.42322 -0.58911,-0.924127 -0.58911,-1.503267 v -0.668176 c 0.24,-0.57914 0.60004,-1.470382 1.08003,-2.673222 0.47999,-1.20282 0.79605,-1.982476 0.94878,-2.338876 0.28363,-0.60142 0.68768,-0.723819 1.2113,-0.367419 0.32727,0.22274 0.87246,0.857377 1.63607,1.904277 0.21817,0.28958 0.38184,0.501453 0.49093,0.635103 0.7418,1.00236 1.30899,1.503267 1.7017,1.503267 0.41453,-0.0223 0.78534,-0.178091 1.1126,-0.467671 0.32726,-0.28956 0.69858,-0.701501 1.11311,-1.236101 0.19576,-0.252454 0.38613,-0.510665 0.57206,-0.773079 a 30.508982,30.508982 0 0 0 0.27698,-3.871082 30.508982,30.508982 0 0 0 -2.70061,-12.529467 z m 3.04374,2.104781 c 0.89452,-0.0223 1.62537,0.27857 2.19263,0.90227 0.56728,0.62368 0.86187,1.369913 0.88367,2.238623 0.0218,0.86871 -0.27278,1.603624 -0.88367,2.205034 -0.61089,0.60142 -1.34174,0.90227 -2.19263,0.90227 -0.85088,0 -1.57101,-0.30085 -2.16008,-0.90227 -0.58907,-0.60141 -0.88366,-1.336324 -0.88366,-2.205034 0.0436,-0.91326 0.33823,-1.659483 0.88366,-2.238623 0.54544,-0.57916 1.26556,-0.88001 2.16008,-0.90227 z m -20.23804,0.606164 c 0.87168,0 1.54719,0.675558 1.54719,1.525488 v 16.585551 c 0,0.84992 -0.67551,1.525489 -1.54719,1.525489 -0.87177,0 -1.52549,-0.675569 -1.52549,-1.525489 V 53.178597 c 0,-0.84993 0.65372,-1.525488 1.52549,-1.525488 z"
         inkscape:export-filename="davis-logo-2.png"
         inkscape:export-xdpi="96"
         inkscape:export-ydpi="96" /></g></g></svg>
